<?xml version="1.0" encoding="utf-8"?>
<!-- Generator: Adobe Illustrator 16.0.4, SVG Export Plug-In . SVG Version: 6.00 Build 0)  -->
<!DOCTYPE svg PUBLIC "-//W3C//DTD SVG 1.1//EN" "http://www.w3.org/Graphics/SVG/1.1/DTD/svg11.dtd">
<svg version="1.1" id="Layer_1" xmlns="http://www.w3.org/2000/svg" xmlns:xlink="http://www.w3.org/1999/xlink" x="0px" y="0px"
	 width="142px" height="138.2px" viewBox="560 896 142 138.2" style="enable-background:new 560 896 142 138.2;"
	 xml:space="preserve">
<style type="text/css">
<![CDATA[
	.st0{clip-path:url(#SVGID_2_);}
	.st1{fill:none;stroke:#C4402B;stroke-width:4;stroke-miterlimit:10;}
]]>
</style>
<g>
	<defs>
		<rect id="SVGID_1_" x="560" y="896" width="142" height="138.2"/>
	</defs>
	<clipPath id="SVGID_2_">
		<use xlink:href="#SVGID_1_"  style="overflow:visible;"/>
	</clipPath>
	<g class="st0">
		<line class="st1" x1="556.1" y1="899.8" x2="710.8" y2="841.3"/>
		<line class="st1" x1="556.1" y1="910.4" x2="710.8" y2="851.9"/>
		<line class="st1" x1="556.1" y1="921" x2="710.8" y2="862.5"/>
		<line class="st1" x1="556.1" y1="931.7" x2="710.8" y2="873.2"/>
		<line class="st1" x1="556.1" y1="942.3" x2="710.8" y2="883.8"/>
		<line class="st1" x1="556.1" y1="952.9" x2="710.8" y2="894.4"/>
		<line class="st1" x1="556.1" y1="963.6" x2="710.8" y2="905.1"/>
		<line class="st1" x1="556.1" y1="974.2" x2="710.8" y2="915.7"/>
		<line class="st1" x1="556.1" y1="984.8" x2="710.8" y2="926.3"/>
		<line class="st1" x1="556.1" y1="995.4" x2="710.8" y2="936.9"/>
		<line class="st1" x1="556.1" y1="1006.1" x2="710.8" y2="947.6"/>
		<line class="st1" x1="556.1" y1="1016.7" x2="710.8" y2="958.2"/>
		<line class="st1" x1="556.1" y1="1027.3" x2="710.8" y2="968.8"/>
		<line class="st1" x1="556.1" y1="1038" x2="710.8" y2="979.5"/>
		<line class="st1" x1="556.1" y1="1048.6" x2="710.8" y2="990.1"/>
		<line class="st1" x1="556.1" y1="1059.2" x2="710.8" y2="1000.7"/>
		<line class="st1" x1="556.1" y1="1069.8" x2="710.8" y2="1011.3"/>
		<line class="st1" x1="556.1" y1="1080.5" x2="710.8" y2="1022"/>
		<line class="st1" x1="556.1" y1="1091.1" x2="710.8" y2="1032.6"/>
	</g>
</g>
</svg>
